<svg xmlns="http://www.w3.org/2000/svg" xmlns:xlink="http://www.w3.org/1999/xlink" width="238" height="305" viewBox="0 0 238 305"><defs><linearGradient id="a" x1="119.05" y1="758.68" x2="119.05" y2="603.49" gradientTransform="translate(0 -462)" gradientUnits="userSpaceOnUse"><stop offset="0" stop-color="#fff" stop-opacity="0"/><stop offset="1" stop-color="#fff" stop-opacity="0.4"/></linearGradient></defs><title>pillar</title><path d="M85.9,85.4a12.49,12.49,0,0,0,2.6-3,8.51,8.51,0,0,0,0-9.2,14.75,14.75,0,0,0-2.6-3,14.75,14.75,0,0,0-2.6,3,8.51,8.51,0,0,0,0,9.2A12.49,12.49,0,0,0,85.9,85.4ZM72.2,40a4.25,4.25,0,0,1,4.3,4.2,4.31,4.31,0,0,1-4.2,4.3A4.25,4.25,0,0,1,68,44.3h0A4.25,4.25,0,0,1,72.2,40Zm93.6,0a4.3,4.3,0,1,1-4.3,4.3h0a4.27,4.27,0,0,1,4.3-4.3ZM151.3,85.4a14.75,14.75,0,0,0,2.6-3,8.51,8.51,0,0,0,0-9.2,14.75,14.75,0,0,0-2.6-3,14.75,14.75,0,0,0-2.6,3,8.51,8.51,0,0,0,0,9.2A12.49,12.49,0,0,0,151.3,85.4Zm7.1-.3a18.59,18.59,0,0,1-3.9,4.5V304.9H82.8V89.6a16.65,16.65,0,0,1-3.9-4.5,13.74,13.74,0,0,1,0-14.6A15,15,0,0,1,80.8,68,25.24,25.24,0,0,1,54.5,26.4,26.22,26.22,0,0,1,57,24.2H53.8A12.3,12.3,0,0,1,53.7-.4H184.3a12.3,12.3,0,1,1,0,24.6h-3.2a25.15,25.15,0,0,1-25,43.2,17,17,0,0,1,2.3,3,14.35,14.35,0,0,1,0,14.7Zm-9.2,5.3a18.81,18.81,0,0,1-4.4-4.5,19.81,19.81,0,0,1-5.1,4.9l-1.5,1-1.5-1a19.81,19.81,0,0,1-5.1-4.9,18.29,18.29,0,0,1-5.1,4.9l-1.5,1-1.5-1a19.81,19.81,0,0,1-5.1-4.9,18,18,0,0,1-5,4.9l-1.5,1-1.5-1a19.81,19.81,0,0,1-5.1-4.9,19.81,19.81,0,0,1-5.1,4.9l-1.5,1-1.5-1a19.81,19.81,0,0,1-5.1-4.9,18.81,18.81,0,0,1-4.4,4.5v6.4a9.16,9.16,0,0,1,10.5,1.8l.1.1.3-.3a9.34,9.34,0,0,1,6.4-2.5,9.15,9.15,0,0,1,6.5,2.7l.1.1.1-.1a9.29,9.29,0,0,1,13.1,0l.1.1.1-.1a9.29,9.29,0,0,1,13.1,0l.1.1.1-.1a9.29,9.29,0,0,1,10.6-1.8Zm-4.4-20.7a18.29,18.29,0,0,1,5.1-4.9l.7-.5a17.94,17.94,0,0,1-2.5-2.3l-.6-.7H90.7L90,62a34.67,34.67,0,0,1-2.9,2.5l.3.2a19.81,19.81,0,0,1,5.1,4.9,19.81,19.81,0,0,1,5.1-4.9l1.5-1,1.5,1a19.81,19.81,0,0,1,5.1,4.9,18,18,0,0,1,5-4.9l1.5-1,1.5,1a19.81,19.81,0,0,1,5.1,4.9,18.29,18.29,0,0,1,5.1-4.9l1.5-1,1.5,1a19.81,19.81,0,0,1,5.1,4.9,18.29,18.29,0,0,1,5.1-4.9l1.5-1,1.5,1a28.46,28.46,0,0,1,4.7,5Zm-6.6,15.7a14.75,14.75,0,0,0,2.6-3,8.94,8.94,0,0,0,0-9.2,14.75,14.75,0,0,0-2.6-3,14.75,14.75,0,0,0-2.6,3,8.94,8.94,0,0,0,0,9.2A10.84,10.84,0,0,0,138.2,85.4Zm-13.1,0a12.49,12.49,0,0,0,2.6-3,8.51,8.51,0,0,0,0-9.2,14.75,14.75,0,0,0-2.6-3,14.75,14.75,0,0,0-2.6,3,8.51,8.51,0,0,0,0,9.2A12.78,12.78,0,0,0,125.1,85.4Zm-13,0a14.75,14.75,0,0,0,2.6-3,8.51,8.51,0,0,0,0-9.2,14.75,14.75,0,0,0-2.6-3,14.75,14.75,0,0,0-2.6,3,8.51,8.51,0,0,0,0,9.2A10.84,10.84,0,0,0,112.1,85.4ZM99,85.4a14.75,14.75,0,0,0,2.6-3,8.94,8.94,0,0,0,0-9.2,14.75,14.75,0,0,0-2.6-3,14.75,14.75,0,0,0-2.6,3,8.94,8.94,0,0,0,0,9.2A10.84,10.84,0,0,0,99,85.4Zm37.9-38.6v9.3h6.7a25.85,25.85,0,0,1-2.9-9.3Zm-5.3,9.4V46.8h-5v9.3Zm-10.2,0V46.8h-5v9.3Zm-10.1,0V46.8h-5v9.3Zm-10.2,0V46.8H97.3a23.51,23.51,0,0,1-2.9,9.3Zm-5,49a4.08,4.08,0,0,0-3.9-4.1,3.85,3.85,0,0,0-2.9,1.2,4,4,0,0,0-1.2,2.8V299.6h8Zm5.2,194.5h8V105.2a4,4,0,0,0-4-4,4.36,4.36,0,0,0-2.9,1.1,3.7,3.7,0,0,0-1.2,2.4l.1,195Zm34.6-194.5a4,4,0,0,0-8,0V299.7h8Zm5.2,194.5h8V105.2a4,4,0,0,0-8,0ZM122.6,105.2a4,4,0,0,0-8,0V299.7h8ZM72.3,30.3h93.5a14,14,0,1,1-10.9,5.2H83.1a14,14,0,0,1-2.2,19.6A13.75,13.75,0,0,1,61.4,53a14,14,0,0,1,2.2-19.6,13.61,13.61,0,0,1,8.7-3.1Zm93.5,5.2h0a8.7,8.7,0,1,0,8.7,8.7,8.32,8.32,0,0,0-2.6-6.1A8.72,8.72,0,0,0,165.8,35.5Zm-93.5,0h0A8.71,8.71,0,1,0,78.4,38,9.07,9.07,0,0,0,72.3,35.5Zm0-11.3h0A20,20,0,1,0,92.2,44.3V41.6h53.6v2.6a19.94,19.94,0,1,0,19.9-20Zm112-19.4H53.7a7.1,7.1,0,0,0,0,14.2H184.3a7.1,7.1,0,1,0,0-14.2Z" fill="url(#a)"/></svg>