<?xml version="1.0" standalone="no"?>
<!DOCTYPE svg PUBLIC "-//W3C//DTD SVG 20010904//EN"
 "http://www.w3.org/TR/2001/REC-SVG-20010904/DTD/svg10.dtd">
<svg version="1.0" xmlns="http://www.w3.org/2000/svg"
 width="700.000000pt" height="700.000000pt" viewBox="0 0 700.000000 700.000000"
 preserveAspectRatio="xMidYMid meet">
<metadata>
Created by potrace 1.11, written by Peter Selinger 2001-2013
</metadata>
<g transform="translate(0.000000,700.000000) scale(0.100000,-0.100000)"
fill="#000000" stroke="none">
<path d="M1195 6992 c-87 -6 -255 -34 -348 -57 -460 -116 -743 -379 -823 -765
-12 -58 -18 -131 -18 -230 0 -207 16 -305 77 -465 146 -384 504 -629 1037
-710 45 -7 60 -9 206 -19 l80 -6 55 97 c30 54 56 105 59 113 3 8 38 82 78 163
40 82 72 150 72 152 0 1 -100 5 -222 8 -123 4 -234 8 -248 11 -14 2 -41 7 -60
10 -227 40 -392 167 -464 358 -48 124 -58 358 -21 463 55 155 177 261 371 323
164 53 326 70 614 65 292 -5 270 -2 270 -32 0 -14 1 -1360 1 -2990 0 -2115 -3
-2966 -10 -2971 -23 -14 -441 -19 -572 -6 -83 7 -100 10 -199 31 -270 57 -431
187 -484 390 -16 61 -16 238 -1 315 46 234 191 387 425 449 114 30 129 32 370
38 124 3 226 6 228 8 1 1 -26 60 -60 131 -34 71 -65 136 -68 144 -3 8 -33 68
-68 133 l-64 118 -91 -5 c-428 -28 -754 -148 -985 -362 -68 -62 -172 -191
-172 -211 0 -6 -6 -16 -14 -22 -13 -11 -83 -170 -91 -207 -2 -11 -10 -46 -19
-79 -24 -96 -33 -191 -31 -330 5 -292 88 -502 272 -682 67 -65 197 -156 273
-190 25 -11 61 -27 80 -36 108 -48 298 -97 440 -113 30 -3 64 -9 75 -11 11 -3
332 -7 713 -8 l692 -3 0 3499 0 3498 -657 -2 c-362 -1 -676 -3 -698 -5z"/>
<path d="M3183 3500 l0 -3500 317 0 317 0 0 3500 0 3500 -317 0 -317 0 0
-3500z"/>
<path d="M4450 3501 l0 -3499 693 3 c380 1 703 5 717 8 14 3 43 8 65 11 334
42 617 162 793 334 191 187 274 397 276 697 1 161 -6 230 -35 341 -81 317
-276 548 -586 695 -98 47 -113 53 -163 68 -19 6 -56 17 -81 25 -115 36 -334
68 -479 70 l-65 1 -129 -258 c-71 -142 -127 -259 -125 -262 3 -2 90 -5 195 -6
366 -3 539 -53 679 -193 102 -103 158 -253 164 -441 8 -270 -124 -447 -399
-534 -62 -19 -80 -24 -159 -37 -18 -3 -43 -8 -55 -10 -103 -21 -624 -24 -657
-4 -6 4 -10 1000 -10 2941 0 1614 0 2959 0 2989 l1 56 63 4 c167 10 496 3 612
-15 408 -60 597 -233 604 -550 3 -114 -26 -250 -71 -342 -79 -162 -242 -265
-488 -308 -19 -3 -134 -9 -255 -12 -121 -3 -221 -6 -223 -8 -4 -4 136 -294
200 -412 l60 -111 76 3 c90 5 191 14 212 20 8 2 31 6 50 9 226 36 432 112 599
223 75 50 206 169 251 228 89 118 168 300 195 450 4 22 10 54 13 70 12 68 5
350 -11 425 -75 344 -295 581 -669 718 -53 20 -192 58 -247 68 -189 36 -214
37 -913 40 l-698 4 0 -3499z"/>
</g>
</svg>
